<?xml version="1.0" standalone="no"?>
<!DOCTYPE svg PUBLIC "-//W3C//DTD SVG 20010904//EN"
 "http://www.w3.org/TR/2001/REC-SVG-20010904/DTD/svg10.dtd">
<svg version="1.0" xmlns="http://www.w3.org/2000/svg"
 width="200.000000pt" height="200.000000pt" viewBox="0 0 200.000000 200.000000"
 preserveAspectRatio="xMidYMid meet">
<metadata>
Created by potrace 1.14, written by Peter Selinger 2001-2017
</metadata>
<g transform="translate(0.000000,200.000000) scale(0.100000,-0.100000)"
fill="#000000" stroke="none">
<path d="M565 1900 c-32 -18 -160 -137 -166 -155 -2 -6 -40 -42 -84 -79 -77
-66 -152 -140 -186 -183 -10 -12 -23 -25 -30 -29 -8 -5 -22 -25 -32 -44 -14
-29 -17 -62 -17 -195 0 -250 0 -297 0 -342 -1 -24 -1 -51 0 -60 0 -10 -2 -34
-6 -53 -5 -35 -2 -40 102 -150 60 -63 115 -119 124 -124 31 -19 137 -132 144
-152 4 -12 20 -27 36 -34 16 -7 36 -23 45 -36 8 -13 20 -24 26 -24 5 0 23 -10
39 -21 28 -21 37 -22 394 -22 l366 -1 104 104 c57 58 115 115 128 127 41 39
89 86 148 146 32 31 63 57 69 57 6 0 11 6 11 13 0 7 14 26 31 43 27 26 30 33
24 69 -8 46 -9 131 -3 385 3 143 -4 245 -17 260 -7 8 -15 24 -16 35 -2 11 -19
26 -37 34 -17 8 -32 21 -32 29 0 7 -24 37 -54 65 -29 29 -98 96 -153 150 -56
53 -108 97 -117 97 -8 0 -18 10 -21 23 -4 13 -23 36 -43 52 l-36 29 -356 2
c-319 1 -358 0 -385 -16z m690 -115 c39 -17 94 -68 104 -97 6 -18 22 -34 43
-43 35 -14 81 -59 91 -87 3 -9 25 -29 49 -44 58 -36 84 -61 120 -114 44 -64
72 -180 49 -203 -14 -14 -14 -50 -1 -63 7 -7 7 -41 1 -104 -7 -59 -7 -100 -1
-111 6 -10 10 -38 10 -64 0 -70 -50 -155 -127 -218 -35 -28 -63 -53 -63 -56 0
-3 -25 -32 -54 -63 -30 -32 -60 -67 -66 -78 -6 -11 -17 -20 -24 -20 -8 0 -36
-18 -62 -41 -27 -22 -60 -45 -74 -51 -30 -13 -499 -18 -578 -7 -44 7 -64 18
-127 70 -41 34 -75 65 -75 69 0 4 -14 13 -30 20 -18 7 -45 35 -68 69 -20 31
-53 64 -72 75 -32 17 -67 58 -113 130 -19 30 -23 81 -15 226 3 47 0 92 -5 101
-6 10 -7 27 -1 45 6 16 7 54 3 84 -15 116 -13 121 41 181 28 29 58 63 69 74
59 66 327 318 343 324 27 10 608 6 633 -4z"/>
<path d="M599 1525 c-3 -2 -21 -5 -40 -6 -52 -4 -62 -16 -41 -51 9 -17 27 -34
39 -39 20 -7 21 -13 17 -96 -2 -48 -4 -98 -4 -110 1 -13 1 -40 1 -60 1 -21 1
-72 0 -113 0 -41 0 -101 2 -133 1 -40 -2 -60 -12 -66 -9 -6 -12 -18 -7 -34 5
-20 0 -32 -21 -51 -25 -23 -25 -26 -11 -48 14 -21 22 -23 101 -22 60 0 93 5
109 16 23 16 23 16 4 37 -33 36 -46 91 -46 193 0 135 2 136 163 133 387 -6
358 6 362 -143 3 -95 2 -102 -16 -102 -13 0 -19 -7 -19 -24 0 -12 -11 -35 -25
-50 l-25 -27 21 -17 c19 -17 49 -19 177 -13 23 1 32 34 12 46 -7 4 -8 23 -5
48 4 23 2 53 -3 67 -6 16 -6 33 1 47 7 15 6 55 -2 126 -8 73 -9 131 -2 193 8
68 7 101 -3 139 l-14 50 35 37 c20 20 33 40 30 45 -10 16 -144 35 -187 28 -33
-6 -40 -11 -40 -29 0 -13 9 -31 19 -40 22 -20 35 -83 36 -181 0 -38 3 -76 5
-84 3 -9 -3 -16 -15 -19 -11 -2 -27 -11 -36 -19 -13 -11 -57 -14 -212 -16
-227 -1 -251 5 -241 59 3 17 1 41 -5 52 -7 12 -8 51 -4 102 5 66 11 88 30 110
28 33 29 46 6 55 -23 8 -128 17 -134 10z"/>
</g>
</svg>
